<?xml version="1.0" encoding="UTF-8" standalone="no"?>
<!-- Created with Inkscape (http://www.inkscape.org/) -->

<svg
   xmlns:dc="http://purl.org/dc/elements/1.1/"
   xmlns:cc="http://creativecommons.org/ns#"
   xmlns:rdf="http://www.w3.org/1999/02/22-rdf-syntax-ns#"
   xmlns:svg="http://www.w3.org/2000/svg"
   xmlns="http://www.w3.org/2000/svg"
   version="1.1"
   width="744.09448"
   height="1052.3622"
   id="svg4932">
  <defs
     id="defs4934" />
  <metadata
     id="metadata4937">
    <rdf:RDF>
      <cc:Work
         rdf:about="">
        <dc:format>image/svg+xml</dc:format>
        <dc:type
           rdf:resource="http://purl.org/dc/dcmitype/StillImage" />
        <dc:title></dc:title>
      </cc:Work>
    </rdf:RDF>
  </metadata>
  <g
     id="layer1">
    <path
       d="m 328.57143,468.07648 a 118.57143,87.14286 0 1 1 -237.142856,0 118.57143,87.14286 0 1 1 237.142856,0 z"
       id="path4940"
       style="opacity:0.98999999;color:#000000;fill:#800080;fill-opacity:0.98630138;fill-rule:nonzero;stroke:#0000ff;stroke-width:8;stroke-linecap:butt;stroke-linejoin:miter;stroke-miterlimit:4;stroke-opacity:1;stroke-dasharray:none;stroke-dashoffset:0;marker:none;visibility:visible;display:inline;overflow:visible;enable-background:accumulate" />
    <path
       d="m 325.71428,360.93362 a 68.571426,31.428572 0 1 1 -137.14285,0 68.571426,31.428572 0 1 1 137.14285,0 z"
       id="path4942"
       style="opacity:0.98999999;color:#000000;fill:#800080;fill-opacity:0.98630138;fill-rule:nonzero;stroke:#0000ff;stroke-width:8;stroke-linecap:butt;stroke-linejoin:miter;stroke-miterlimit:4;stroke-opacity:1;stroke-dasharray:none;stroke-dashoffset:0;marker:none;visibility:visible;display:inline;overflow:visible;enable-background:accumulate" />
    <path
       d="m 408.57143,415.21933 a 85.714287,11.428572 0 1 1 -171.42857,0 85.714287,11.428572 0 1 1 171.42857,0 z"
       id="path4944"
       style="opacity:0.98999999;color:#000000;fill:#800080;fill-opacity:0.98630138;fill-rule:nonzero;stroke:#0000ff;stroke-width:8;stroke-linecap:butt;stroke-linejoin:miter;stroke-miterlimit:4;stroke-opacity:1;stroke-dasharray:none;stroke-dashoffset:0;marker:none;visibility:visible;display:inline;overflow:visible;enable-background:accumulate" />
    <path
       d="m 408.57143,415.21933 a 85.714287,11.428572 0 1 1 -171.42857,0 85.714287,11.428572 0 1 1 171.42857,0 z"
       transform="translate(3.428567,85.142853)"
       id="path4944-5"
       style="opacity:0.98999999;color:#000000;fill:#800080;fill-opacity:0.98630138;fill-rule:nonzero;stroke:#0000ff;stroke-width:8;stroke-linecap:butt;stroke-linejoin:miter;stroke-miterlimit:4;stroke-opacity:1;stroke-dasharray:none;stroke-dashoffset:0;marker:none;visibility:visible;display:inline;overflow:visible;enable-background:accumulate" />
    <path
       d="m 408.57143,415.21933 a 85.714287,11.428572 0 1 1 -171.42857,0 85.714287,11.428572 0 1 1 171.42857,0 z"
       transform="translate(5.428567,59.142853)"
       id="path4944-0"
       style="opacity:0.98999999;color:#000000;fill:#800080;fill-opacity:0.98630138;fill-rule:nonzero;stroke:#0000ff;stroke-width:8;stroke-linecap:butt;stroke-linejoin:miter;stroke-miterlimit:4;stroke-opacity:1;stroke-dasharray:none;stroke-dashoffset:0;marker:none;visibility:visible;display:inline;overflow:visible;enable-background:accumulate" />
    <path
       d="m 408.57143,415.21933 a 85.714287,11.428572 0 1 1 -171.42857,0 85.714287,11.428572 0 1 1 171.42857,0 z"
       transform="translate(7.428567,29.142853)"
       id="path4944-07"
       style="opacity:0.98999999;color:#000000;fill:#800080;fill-opacity:0.98630138;fill-rule:nonzero;stroke:#0000ff;stroke-width:8;stroke-linecap:butt;stroke-linejoin:miter;stroke-miterlimit:4;stroke-opacity:1;stroke-dasharray:none;stroke-dashoffset:0;marker:none;visibility:visible;display:inline;overflow:visible;enable-background:accumulate" />
  </g>
</svg>
